<?xml version="1.0" encoding="utf-8"?>
<!-- Generator: Adobe Illustrator 16.0.0, SVG Export Plug-In . SVG Version: 6.00 Build 0)  -->
<!DOCTYPE svg PUBLIC "-//W3C//DTD SVG 1.1//EN" "http://www.w3.org/Graphics/SVG/1.1/DTD/svg11.dtd">
<svg version="1.1" id="Layer_1" xmlns="http://www.w3.org/2000/svg" xmlns:xlink="http://www.w3.org/1999/xlink" x="0px" y="0px"
	 width="100px" height="100px" viewBox="0 0 100 100" enable-background="new 0 0 100 100" xml:space="preserve">
<title>wep_logowhite</title>
<g>
	<path fill="#FFFFFF" d="M43.539,4.008c1.056,0.942,2.788,1.403,2.788,1.403c1.158,0.309,2.234,0.333,2.687,0.344
		c0.195,0.004,0.414,0.004,0.753,0.031c0.633,0.048,1.361,0.164,1.807,0.298c1.146,0.353,1.953,1.334,2.337,1.877
		c-0.233-0.466-0.674-1.174-1.468-1.678c-0.273-0.173-0.706-0.398-2.119-0.626c-2.241-0.361-2.639-0.035-4.173-0.483
		c-0.653-0.187-1.282-0.453-1.872-0.791c-0.451-0.262-0.878-0.563-1.276-0.899c0.097,0.104,0.241,0.255,0.427,0.424
		C43.43,3.909,43.484,3.961,43.539,4.008z"/>
	<path fill="#FFFFFF" d="M49.226,22.373c-0.6-1.014-1.73-1.55-2.86-1.483l-0.924-8.214c0.207-0.037,0.405-0.104,0.59-0.202
		c1.099-0.581,1.545-2.015,0.96-3.053c-0.584-1.038-1.939-1.422-2.978-0.858C43.45,8.857,43.042,9.381,42.896,10l-7.364-1.229
		c0.05-0.435-0.038-0.874-0.25-1.256c-0.574-1.035-1.894-1.373-2.955-0.758c-0.632,0.372-1.017,1.055-1.008,1.788l-7.74,0.657
		c-0.04-0.155-0.099-0.304-0.174-0.444c-0.522-0.962-1.725-1.32-2.687-0.798c-0.006,0.003-0.012,0.006-0.018,0.01
		c-0.95,0.528-1.299,1.751-0.779,2.725c0.471,0.879,1.653,1.229,2.599,0.8l2.504,4.123c-0.034,0.018-0.068,0.035-0.102,0.055
		c-1.326,0.763-1.813,2.687-1.038,4.083c0.775,1.397,2.707,1.98,4.092,1.247l2.635,4.394c-1.405,0.876-1.915,3.036-1.036,4.506
		c0.942,1.583,2.99,2.104,4.573,1.161c1.277-0.759,1.897-2.272,1.522-3.709l7.997-2.409c0.055,0.168,0.129,0.329,0.22,0.48
		c0.901,1.486,2.841,2.006,4.272,1.147C49.563,25.733,50.058,23.776,49.226,22.373z M25.287,15.491l-2.521-4.129
		c0.619-0.405,0.957-1.126,0.873-1.861l7.7-0.693c0.033,0.245,0.11,0.482,0.228,0.699c0.141,0.257,0.334,0.483,0.567,0.662
		l-3.939,5.504C27.358,15.151,26.278,15.067,25.287,15.491z M33.933,25.232c-0.98-0.479-2.128-0.464-3.097,0.037l-2.637-4.398
		c1.348-0.88,1.807-2.747,0.99-4.165c-0.199-0.346-0.465-0.647-0.784-0.888l3.939-5.504c0.658,0.399,1.506,0.464,2.155,0.074
		c0.058-0.035,0.113-0.073,0.167-0.112l2.578,3.246c-1.026,0.874-1.336,2.514-0.634,3.8c0.255,0.459,0.632,0.839,1.089,1.1
		L33.933,25.232z M43.598,24.697l-8.001,2.412c-0.259-0.735-0.769-1.356-1.44-1.754l3.768-6.814c0.917,0.44,2.052,0.458,2.956-0.066
		c0.124-0.073,0.24-0.158,0.346-0.255l3.19,3.523C43.695,22.491,43.368,23.689,43.598,24.697z M44.945,21.325
		c-0.119,0.071-0.231,0.152-0.336,0.241l-3.196-3.525c0.806-0.899,1.092-2.499,0.531-3.595c-0.76-1.483-2.713-2.051-4.244-1.234
		c-0.086,0.046-0.171,0.098-0.252,0.154l-2.584-3.252c0.314-0.293,0.533-0.673,0.63-1.092l7.361,1.229
		c-0.041,0.43,0.048,0.864,0.253,1.246c0.399,0.773,1.212,1.246,2.082,1.208l0.923,8.212C45.699,20.973,45.303,21.112,44.945,21.325
		z"/>
	<path fill="#FFFFFF" d="M54.979,8.813c-0.016,0.007-0.034,0.012-0.05,0.018c0.286-0.002,0.568-0.057,0.835-0.161
		c0.581-0.247,1.027-1.016,0.961-1.699c-0.101-1.038-1.369-1.599-1.928-1.847c-0.491-0.219-0.765-0.239-1.229-0.324
		c1.227,0.641,2.083,1.36,2.104,2.128C55.682,7.17,55.645,8.544,54.979,8.813z"/>
	<path fill="#FFFFFF" d="M80.319,30.304c0.006-4.297-0.952-8.541-2.802-12.419V17.88C72.874,8.159,62.951,1.443,51.461,1.443
		c-2.089-0.001-4.172,0.224-6.213,0.671c1.56,0.352,5.204,1.223,7.744,2.4c0.835,0.183,1.016,0.126,1.593,0.319
		c0.518,0.172,2.329,0.779,2.496,2.067c0.102,0.782-0.43,1.612-1.091,1.974c-0.228,0.122-0.475,0.204-0.729,0.243
		c0.445,0.179,0.869,0.405,1.268,0.672c1.307,0.896,1.709,2.417,1.646,2.456c-0.064,0.038-0.546-1.095-1.794-1.943
		c-0.496-0.334-1.044-0.583-1.621-0.739c0.32,0.278,0.794,0.665,1.26,1.224c2.689,3.23,4.396,6.852,4.225,11.364
		c-0.033,0.946,0.348,2.127,0.942,2.84c1.307,1.56,2.813,2.964,4.354,4.291c1.39,1.196,1.473,1.424,0.114,2.716
		c-0.335,0.317-0.807,0.571-0.971,0.963c-0.19,0.442-0.334,1.266-0.107,1.478c1.477,1.374,0.757,2.323-0.431,3.263
		c-0.112,0.089-0.177,0.24-0.386,0.537c1.24,0.983,1.38,1.932,0.156,2.981c-0.262,0.224-0.366,0.831-0.31,1.223
		c0.113,0.765,0.393,1.504,0.604,2.253c0.58,2.064,0.264,2.917-1.802,3.445c-2.04,0.52-4.165,0.785-6.264,0.952
		c-3.761,0.298-4.647,1.259-4.583,5.209c0.098,6.046,10.117,18.857,15.306,21.934c0.003-1.474,0.005-2.95,0.008-4.424
		c1.375-9.53,4.609-18.694,9.518-26.973H76.39C78.968,40.431,80.325,35.413,80.319,30.304z"/>
	<path fill="#FFFFFF" d="M33.276,59.837c1.344-6.009,2.344-10.604,2.986-13.236c0.11-0.451,0.33-1.338,0.067-2.343
		c0.22,0.01,0.394,0.01,0.51,0.01c2.774,0.007,5.271,0.744,5.306,0.584c0.05-0.248-5.922-1.906-7.833-3.159l-0.014-0.009
		c-0.403-0.279-0.827-0.537-1.234-0.806l-0.114-0.074c-0.627-0.413-3.762-2.579-6.277-6.187c-2.557-3.671-2.721-7.36-3.46-7.261
		c-0.241,0.032-0.517,0.465-0.683,2.178c-0.014,3.841,0.623,6.789,1.189,8.742c1.728,5.952,4.445,8.513,7.825,16.762
		C31.975,56.091,32.619,57.743,33.276,59.837z"/>
	<path fill="#FFFFFF" d="M54.075,84.4c-0.497-0.513-1.151-0.771-1.962-0.771c-0.758,0-1.395,0.255-1.908,0.759
		c-0.514,0.507-0.853,1.191-1.015,2.057h5.628C54.818,85.598,54.57,84.917,54.075,84.4z"/>
	<path fill="#FFFFFF" d="M41.772,89.725l-2.561-8.76h-4.069l-2.538,8.76l-2.584-8.76H25.69l4.714,12.95h4.216l2.485-7.994
		l2.464,7.994h7.906c-0.052-0.052-0.113-0.089-0.18-0.116c-0.436-0.2-1.107-0.977-1.269-1.164c-0.563-0.65-0.895-1.391-1.08-1.906
		c-0.164-0.451-0.287-0.918-0.368-1.395c-0.083-0.506-0.125-1.021-0.123-1.534c0-1.499,0.315-2.818,0.946-3.964
		c0.613-1.127,1.545-2.051,2.679-2.652c0.143-0.077,0.289-0.147,0.437-0.215h-4.164L41.772,89.725z"/>
	<path fill="#FFFFFF" d="M68.352,81.649c-0.908-0.552-1.962-0.825-3.156-0.825c-1.595,0-2.864,0.604-3.805,1.817v-1.677h-5.684
		c-0.001,0.004-0.003,0.007-0.004,0.01c0,0.03,0.114,0.055,0.368,0.188c0.166,0.089,0.325,0.187,0.478,0.298
		c0.202,0.138,0.397,0.291,0.581,0.457c0.064,0.056,0.142,0.129,0.23,0.215c0.075,0.074,0.147,0.15,0.222,0.228
		c1.28,1.409,1.918,3.337,1.918,5.79c0,0.381-0.007,0.669-0.025,0.866H49.299c0.234,0.828,0.639,1.464,1.217,1.906
		s1.281,0.663,2.111,0.663c0.628,0.003,1.25-0.126,1.825-0.378c0.604-0.264,1.151-0.639,1.612-1.108l1.064,1.065l1.452,1.449
		c-0.426,0.479-0.914,0.899-1.452,1.253v4.691h4.262v-6.318c0.447,0.577,1.025,1.04,1.686,1.351c0.697,0.319,1.452,0.481,2.217,0.47
		c1.182,0,2.223-0.271,3.125-0.813c0.903-0.544,1.628-1.342,2.082-2.297c0.486-0.988,0.73-2.137,0.73-3.444
		c-0.003-1.326-0.256-2.496-0.762-3.513C69.968,82.979,69.262,82.199,68.352,81.649z M66.163,89.725
		c-0.52,0.592-1.193,0.887-2.022,0.887c-0.814,0-1.477-0.295-1.987-0.887c-0.51-0.59-0.765-1.363-0.765-2.321
		s0.255-1.734,0.765-2.333c0.511-0.596,1.173-0.896,1.987-0.896c0.829,0,1.503,0.298,2.022,0.896
		c0.519,0.599,0.778,1.378,0.776,2.333C66.939,88.361,66.682,89.135,66.163,89.725z"/>
</g>
</svg>
